<?xml version="1.0" encoding="utf-8"?>
<svg id="master-artboard" viewBox="0 0 426.4230651855469 258.0845947265625" version="1.1" xmlns="http://www.w3.org/2000/svg" x="0px" y="0px" style="enable-background:new 0 0 841.9 595.3;" width="426.4230651855469px" height="258.0845947265625px"><rect id="ee-background" x="0" y="0" width="426.4230651855469" height="258.0845947265625" style="fill: white; fill-opacity: 0; pointer-events: none;"/>



<g transform="matrix(1, 0, 0, 1, -204.86122131347656, 0)">
		<path d="M 212.39999389648438 277.1000061035156 L 628.2999877929688 277.1000061035156 L 628.2999877929688 565.4000244140625 L 212.39999389648438 565.4000244140625 L 212.39999389648438 277.1000061035156 Z" class="st5" style="fill-rule: evenodd; clip-rule: evenodd; fill: rgb(79, 83, 86);"/>
		<path class="st6" d="M551.2,480.7h-19c-3.2,0.2-4.1,1-4.1,4.9v10.7h23.1V480.7L551.2,480.7z M561.4,472.1v46.6h-10.1v-13.4h-23.1&#10;&#9;&#9;&#9;v13.4H518v-36.6c0-6.5,2.6-10.1,10.1-10.1H561.4L561.4,472.1z M507.8,482.2v25.2c0,8-4.5,11.3-10.1,11.3h-32v-46.6h32&#10;&#9;&#9;&#9;C506.3,472.1,507.8,477.6,507.8,482.2L507.8,482.2z M497.6,485c0-2.6-1.6-4.3-4.3-4.3h-17.4v29.1h17.4c4-0.2,4.3-2.6,4.3-4.5V485&#10;&#9;&#9;&#9;L497.6,485z M259.1,472.1h10.1v18.4h22.7v-18.4H302v46.6h-10.1v-19h-22.7v19h-10.1V472.1L259.1,472.1z M319.4,472.1l12.7,19.1&#10;&#9;&#9;&#9;l12.6-19.1H357l-19.8,29.8v16.8H327v-16.8l-19.9-29.8H319.4L319.4,472.1z M413.9,472.1h32.7c4.7,0,9.2,0.7,9,10.1v36.6h-10.1&#10;&#9;&#9;&#9;v-33.2c0-4-0.5-4.9-3.6-4.9H424v38.1h-10.1V472.1L413.9,472.1z M581.6,472.1v46.6h-10.1v-46.6H581.6L581.6,472.1z M362,518.7h32.7&#10;&#9;&#9;&#9;c6.5,0,9.2-1.9,9-11.2v-35.4h-10.1v33.3c0,4-0.5,4.5-3.6,4.5h-17.8v-37.8H362V518.7L362,518.7z" style="fill-rule: evenodd; clip-rule: evenodd; fill: rgb(79, 83, 86);"/>
		<path class="st6" d="M445.5,399.5c1.8,9.5-3.1,17.4-7.3,25.1c-4.6,7.1-12.2,13.3-21.3,12.3c-20.5-0.3-40.5-3.4-59-9&#10;&#9;&#9;&#9;c-0.8-0.2-1.7-0.8-2.1-1.5c-0.4-1.1,0.2-2.1,0.9-2.8c16.9-13.7,37.1-20.1,57-26.7c7.4-2.1,15.3-4.4,23.7-3.4&#10;&#9;&#9;&#9;C440.8,393.9,444.3,396.3,445.5,399.5L445.5,399.5z M515.3,358.9c9.5,7.8,18.1,18.5,15.2,31.3c-4.8,19-25.4,29.1-41.9,35.5&#10;&#9;&#9;&#9;c-9,3-18,6.1-27.8,7c-0.6-0.1-1.6,0.1-1.8-0.8l0.2-1.1c13.9-15.7,24.5-33.3,33.8-51.2c4.3-8,8.3-16.3,12-24.4&#10;&#9;&#9;&#9;c0.5-0.6,1.1-0.9,1.7-1.1C510.1,354.4,512.6,357,515.3,358.9L515.3,358.9z M381.6,338.7l-0.3,1.1c-20.1,22.9-33.4,49.5-46,75.9&#10;&#9;&#9;&#9;c-2.5,2.3-4.8-0.8-7-1.8c-11.2-7.4-21.3-19.2-18.4-33.3c4.7-18.4,23.6-28.2,39.4-34.9c9.3-3.5,19.1-6.4,29.3-8&#10;&#9;&#9;&#9;C379.7,337.8,381.1,337.7,381.6,338.7L381.6,338.7z M481.6,342.3c1.1,0.6,2.5,0.8,3.2,2c0.6,1.3-0.6,2.1-1.3,3&#10;&#9;&#9;&#9;c-15.9,12.4-34,19.3-52.6,25.4c-9.4,2.3-18.9,6.4-29.4,4.1c-2.5-0.6-4.7-2.2-6.1-4.6c-2.6-7.2,0.9-14.7,4-21&#10;&#9;&#9;&#9;c4.1-7.9,11.3-17.2,21.2-17.3C442.2,333.7,462.4,337,481.6,342.3L481.6,342.3z M508.1,342.9c16.2,8.9,34.6,24.5,32.7,45.4&#10;&#9;&#9;&#9;c-2.2,19.3-20.2,32.8-36.3,40.9c-47,22.4-112.9,23.1-161.4,3.5c-16.4-6.8-34.8-18.5-41.7-36.2c-5.3-14.5,1.1-29.6,12-39.6&#10;&#9;&#9;&#9;c22.6-20.5,51.4-27.6,81.1-31.6c32.2-3.9,66-0.5,94.8,9.4C495.7,337.1,502.1,339.7,508.1,342.9L508.1,342.9z" style="fill-rule: evenodd; clip-rule: evenodd; fill: rgb(79, 83, 86);"/>
		<path class="st5" d="M551.1,186.5h-19c-3.2,0.2-4.1,1-4.1,4.9v10.7h23.1V186.5L551.1,186.5z M561.2,177.9v46.6h-10.1v-13.4h-23.1&#10;&#9;&#9;&#9;v13.4h-10.1V188c0-6.5,2.6-10.1,10.1-10.1H561.2L561.2,177.9z M507.7,188v25.2c0,8-4.5,11.3-10.1,11.3h-32v-46.6h32&#10;&#9;&#9;&#9;C506.1,177.9,507.7,183.4,507.7,188L507.7,188z M497.4,190.8c0-2.6-1.6-4.3-4.3-4.3h-17.4v29.1l17.4,0c4-0.2,4.3-2.6,4.3-4.5&#10;&#9;&#9;&#9;V190.8L497.4,190.8z M258.9,177.9H269v18.4h22.7v-18.4h10.1v46.6h-10.1v-19H269v19h-10.1V177.9L258.9,177.9z M319.2,177.9&#10;&#9;&#9;&#9;l12.7,19.1l12.6-19.1h12.3L337,207.7v16.8h-10.1v-16.8l-19.9-29.8H319.2L319.2,177.9z M413.7,177.9h32.7c4.7,0,9.2,0.7,9,10.1&#10;&#9;&#9;&#9;v36.6h-10.1v-33.2c0-4-0.5-4.9-3.6-4.9h-17.8v38.1h-10.1V177.9L413.7,177.9z M581.5,177.9v46.6h-10.1v-46.6H581.5L581.5,177.9z&#10;&#9;&#9;&#9; M361.9,224.6h32.7c6.5,0,9.2-1.9,9-11.2v-35.4h-10.1v33.3c0,4-0.5,4.5-3.6,4.5H372v-37.8h-10.1V224.6L361.9,224.6z" style="fill-rule: evenodd; clip-rule: evenodd; fill: rgb(79, 83, 86);"/>
		<path class="st5" d="M445.3,105.3c1.8,9.5-3.1,17.4-7.3,25.1c-4.6,7.1-12.2,13.3-21.3,12.3c-20.5-0.3-40.5-3.4-59-9&#10;&#9;&#9;&#9;c-0.8-0.2-1.7-0.8-2.1-1.5c-0.4-1.1,0.2-2.1,0.9-2.8c16.9-13.7,37.1-20.1,57-26.7c7.4-2.1,15.3-4.4,23.7-3.4&#10;&#9;&#9;&#9;C440.7,99.7,444.1,102.1,445.3,105.3L445.3,105.3z M515.1,64.7c9.5,7.8,18.1,18.5,15.2,31.3c-4.8,19-25.4,29.1-41.9,35.5&#10;&#9;&#9;&#9;c-9,3-18,6.1-27.8,7c-0.6-0.1-1.6,0.1-1.8-0.8l0.2-1.1c13.9-15.7,24.5-33.3,33.8-51.2c4.3-8,8.3-16.3,12-24.4&#10;&#9;&#9;&#9;c0.5-0.6,1.1-0.9,1.7-1.1C509.9,60.2,512.4,62.9,515.1,64.7L515.1,64.7z M381.4,44.5l-0.3,1.1c-20.1,22.9-33.4,49.5-46,75.9&#10;&#9;&#9;&#9;c-2.5,2.3-4.8-0.8-7-1.8c-11.2-7.4-21.3-19.2-18.4-33.3c4.7-18.4,23.6-28.2,39.4-34.9c9.3-3.5,19.1-6.4,29.3-8&#10;&#9;&#9;&#9;C379.5,43.6,380.9,43.5,381.4,44.5L381.4,44.5z M481.4,48.1c1.2,0.6,2.5,0.8,3.2,2c0.6,1.3-0.6,2.1-1.3,3&#10;&#9;&#9;&#9;c-15.9,12.4-34,19.3-52.6,25.4c-9.4,2.3-18.9,6.4-29.4,4.1c-2.5-0.6-4.7-2.2-6.1-4.6c-2.6-7.2,0.9-14.7,4-21&#10;&#9;&#9;&#9;c4.1-7.9,11.3-17.2,21.2-17.3C442,39.6,462.2,42.8,481.4,48.1L481.4,48.1z M507.9,48.8c16.2,8.9,34.6,24.5,32.7,45.4&#10;&#9;&#9;&#9;c-2.2,19.3-20.2,32.8-36.3,40.9c-47,22.4-112.9,23.1-161.4,3.5c-16.4-6.8-34.8-18.5-41.7-36.2c-5.3-14.5,1.1-29.6,12-39.6&#10;&#9;&#9;&#9;c22.6-20.5,51.4-27.6,81.1-31.6c32.2-3.9,66-0.5,94.8,9.4C495.5,42.9,501.9,45.5,507.9,48.8L507.9,48.8z" style="fill-rule: evenodd; clip-rule: evenodd; fill: rgb(79, 83, 86);"/>
	</g>
</svg>