<?xml version="1.0" encoding="utf-8"?>
<svg id="master-artboard" viewBox="0 0 529.07958984375 496.59796142578125" version="1.1" xmlns="http://www.w3.org/2000/svg" x="0px" y="0px" style="enable-background:new 0 0 2000 2000;" width="529.07958984375px" height="496.59796142578125px"><rect id="ee-background" x="0" y="0" width="529.07958984375" height="496.59796142578125" style="fill: white; fill-opacity: 0; pointer-events: none;"/>

<radialGradient id="SVGID_1_" cx="1000.2517" cy="1000.5164" r="653.9938" gradientTransform="matrix(1.8417 0 0 2.1512 -841.9746 -1151.8979)" gradientUnits="userSpaceOnUse">
		<stop offset="0.3997" style="stop-color:#FFFFFF"/>
		<stop offset="0.4636" style="stop-color:#928F8F"/>
		<stop offset="0.5263" style="stop-color:#504D4D"/>
		<stop offset="0.5785" style="stop-color:#2A2928"/>
		<stop offset="0.6183" style="stop-color:#0F0F0F"/>
		<stop offset="0.6409" style="stop-color:#010101"/>
		<stop offset="0.8471" style="stop-color:#101010"/>
	</radialGradient>

<g transform="matrix(4.2049241065979, 0, 0, 4.2049241065979, -2470.1170654296875, -148.80143737792974)"><g id="g-5" transform="matrix(1, 0, 0, 1, 0, 0)">
	<g id="g-6">
		<path class="st0" d="M652,46c27.6,0,50,22.4,50,50s-22.4,50-50,50s-50-22.4-50-50S624.4,46,652,46z" style="fill: rgb(255, 246, 41);"/>
	</g>
</g></g><path id="path-1" class="st28" d="M1228.54,216.98c28.32,0,31.68,0.11,42.86,0.62c10.34,0.47,15.96,2.2,19.7,3.65&#10;&#9;&#9;&#9;&#9;&#9;&#9;c4.95,1.92,8.48,4.22,12.19,7.93c3.71,3.71,6.01,7.24,7.93,12.19c1.45,3.74,3.18,9.35,3.65,19.7&#10;&#9;&#9;&#9;&#9;&#9;&#9;c0.51,11.18,0.62,14.54,0.62,42.86c0,28.32-0.11,31.68-0.62,42.86c-0.47,10.34-2.2,15.96-3.65,19.69&#10;&#9;&#9;&#9;&#9;&#9;&#9;c-1.92,4.95-4.22,8.48-7.93,12.2c-3.71,3.71-7.24,6.01-12.19,7.93c-3.74,1.45-9.36,3.18-19.7,3.65&#10;&#9;&#9;&#9;&#9;&#9;&#9;c-11.18,0.51-14.54,0.62-42.86,0.62c-28.32,0-31.68-0.11-42.86-0.62c-10.34-0.47-15.96-2.2-19.69-3.65&#10;&#9;&#9;&#9;&#9;&#9;&#9;c-4.95-1.92-8.48-4.22-12.2-7.93c-3.71-3.71-6.01-7.24-7.93-12.2c-1.45-3.74-3.18-9.35-3.65-19.69&#10;&#9;&#9;&#9;&#9;&#9;&#9;c-0.51-11.18-0.62-14.54-0.62-42.86c0-28.32,0.11-31.68,0.62-42.86c0.47-10.34,2.2-15.96,3.65-19.7&#10;&#9;&#9;&#9;&#9;&#9;&#9;c1.92-4.95,4.22-8.48,7.93-12.19c3.71-3.71,7.24-6.01,12.2-7.93c3.74-1.45,9.35-3.18,19.69-3.65&#10;&#9;&#9;&#9;&#9;&#9;&#9;C1196.87,217.09,1200.22,216.98,1228.54,216.98 M1228.54,197.87c-28.81,0-32.42,0.12-43.73,0.64&#10;&#9;&#9;&#9;&#9;&#9;&#9;c-11.29,0.52-19,2.31-25.75,4.93c-6.98,2.71-12.89,6.34-18.79,12.23c-5.9,5.9-9.52,11.81-12.23,18.79&#10;&#9;&#9;&#9;&#9;&#9;&#9;c-2.62,6.75-4.42,14.46-4.93,25.75c-0.52,11.31-0.64,14.93-0.64,43.73c0,28.81,0.12,32.42,0.64,43.73&#10;&#9;&#9;&#9;&#9;&#9;&#9;c0.51,11.29,2.31,19,4.93,25.75c2.71,6.97,6.33,12.89,12.23,18.79c5.9,5.9,11.81,9.52,18.79,12.23&#10;&#9;&#9;&#9;&#9;&#9;&#9;c6.75,2.62,14.46,4.41,25.75,4.93c11.31,0.52,14.93,0.64,43.73,0.64c28.81,0,32.42-0.12,43.73-0.64&#10;&#9;&#9;&#9;&#9;&#9;&#9;c11.29-0.52,19-2.31,25.75-4.93c6.98-2.71,12.89-6.34,18.79-12.23c5.9-5.9,9.52-11.81,12.23-18.79&#10;&#9;&#9;&#9;&#9;&#9;&#9;c2.62-6.75,4.42-14.46,4.93-25.75c0.52-11.31,0.64-14.93,0.64-43.73c0-28.81-0.12-32.42-0.64-43.73&#10;&#9;&#9;&#9;&#9;&#9;&#9;c-0.52-11.29-2.31-19-4.93-25.75c-2.71-6.97-6.34-12.89-12.23-18.79c-5.9-5.9-11.81-9.52-18.79-12.23&#10;&#9;&#9;&#9;&#9;&#9;&#9;c-6.75-2.62-14.46-4.42-25.75-4.93C1260.96,197.99,1257.35,197.87,1228.54,197.87" style="fill: rgb(255, 255, 255);" transform="matrix(1, 0, 0, 1, -959.7333984374999, -52.182418823242244)"/><path id="path-2" class="st28" d="M1228.54,249.47c-30.08,0-54.47,24.38-54.47,54.47c0,30.08,24.39,54.47,54.47,54.47&#10;&#9;&#9;&#9;&#9;&#9;&#9;c30.08,0,54.47-24.39,54.47-54.47C1283.01,273.85,1258.63,249.47,1228.54,249.47 M1228.54,339.29&#10;&#9;&#9;&#9;&#9;&#9;&#9;c-19.53,0-35.36-15.83-35.36-35.36c0-19.53,15.83-35.36,35.36-35.36c19.53,0,35.35,15.83,35.35,35.36&#10;&#9;&#9;&#9;&#9;&#9;&#9;C1263.9,323.46,1248.07,339.29,1228.54,339.29" style="fill: rgb(255, 255, 255);" transform="matrix(1, 0, 0, 1, -959.7333984374999, -52.182418823242244)"/><path id="path-3" class="st28" d="M1297.89,247.32c0,7.03-5.7,12.73-12.73,12.73c-7.03,0-12.73-5.7-12.73-12.73&#10;&#9;&#9;&#9;&#9;&#9;&#9;c0-7.03,5.7-12.73,12.73-12.73C1292.19,234.59,1297.89,240.29,1297.89,247.32" style="fill: rgb(255, 255, 255);" transform="matrix(1, 0, 0, 1, -959.7333984374999, -52.182418823242244)"/></svg>