<?xml version="1.0" encoding="utf-8"?>
<svg id="master-artboard" viewBox="0 0 841.9 595.3" version="1.1" xmlns="http://www.w3.org/2000/svg" x="0px" y="0px" style="enable-background:new 0 0 841.9 595.3;" width="841.9000244140625px" height="595.2999877929688px">



<g transform="matrix(1, 0, 0, 1, 0, 0)">
		<path class="st5" d="M297.6,289.4l50.7-74.3c1.9-2.9-0.4-6.2-4.5-6.2l-39.2-0.3c-2.9,0-8.7,3.7-11.3,6.9l-17.7,23l-24.6,32.2&#10;&#9;&#9;&#9;l0.2-55.6c0-3.8-4-6.2-6.4-6.2H200c-3.1,0-5.9,1.2-6,6.9c-0.1,5.6,6.9,6.8,6.9,8.4v148.6c0,2.8,3.9,7.1,6.6,7.1l38.5-0.2&#10;&#9;&#9;&#9;c2.7-0.1,5.1-4,5.1-6.6l0.1-61.9l24.6,30.4l26,32.1c2.1,2.5,6.3,6,10.7,6l41.8-0.3c4,0,3.6-4.9,2.6-6.1&#10;&#9;&#9;&#9;C337.3,345.8,317.4,317.5,297.6,289.4L297.6,289.4z" style="fill-rule: evenodd; clip-rule: evenodd; fill: rgb(79, 83, 86);"/>
		<path class="st5" d="M441.9,209h-22.6h-21.8c-5.2,0-6.4,3.1-7.3,6.4c1,6,7.3,7.7,7.3,7.8v150c0,4,2.4,6.6,5.8,6.6l15.9-0.1&#10;&#9;&#9;&#9;l23.7-0.2c4.4,0,5.5-2.6,5.5-6.3v-158C448.5,211.4,445.3,209,441.9,209L441.9,209z" style="fill-rule: evenodd; clip-rule: evenodd; fill: rgb(79, 83, 86);"/>
		<path class="st5" d="M577.1,132.4c-47.2-12-100.4-18.7-156.6-18.7c-0.4,0-0.8,0.1-1.3,0.1c-50.9,0-99.5,5.6-143.5,15.6&#10;&#9;&#9;&#9;c-123.3,28.2-209.7,91.2-209.7,164c0,72.8,86.3,135.8,209.7,164c43.9,10,92.5,15.6,143.5,15.6c0.5,0,0.9,0,1.3,0&#10;&#9;&#9;&#9;c56.2,0,109.3-6.6,156.6-18.6C694.2,425.1,775,363.9,775,293.4C775,222.9,694.2,161.7,577.1,132.4L577.1,132.4z M577.1,415.3&#10;&#9;&#9;&#9;c-46.6,10.8-99.9,16.9-156.6,16.9c-0.4,0-0.8-0.1-1.3-0.1c-51.3,0-100-5.1-143.5-14.2C167,395.3,92,347.9,92,293.4&#10;&#9;&#9;&#9;s75-101.9,183.8-124.5c43.4-9,92.1-14.2,143.5-14.3c0.5,0,0.9,0,1.3,0c56.7,0,110,6.1,156.6,16.9c102.4,23.5,172,69.4,172,121.9&#10;&#9;&#9;&#9;S679.4,391.8,577.1,415.3L577.1,415.3z" style="fill-rule: evenodd; clip-rule: evenodd; fill: rgb(79, 83, 86);"/>
		<path class="st5" d="M607.7,215.4c-1.5-3.3-4-6.4-7.3-6.4h-23.3h-36.7c-2.1,0-5.1,1.8-5.1,4.7c-0.1,8.6,8.8,8.3,8.4,9.5L493,372.5&#10;&#9;&#9;&#9;c-0.9,2.5,1.4,7.2,4.5,7.2l35.3-0.3c3.1,0,7.5-2.6,8.7-6.4l16.7-50.2c5.6-16.7,11.3-33.4,16.8-50.2c0.3-0.7,1.2-1.1,2-1.1&#10;&#9;&#9;&#9;c1.4,0,2.8,0.5,3.1,1.5L613,373.6c0.7,2.2,5.2,5.8,7.7,5.8l36.7,0.3c2.1,0,4.7-4.3,4-6.2L607.7,215.4L607.7,215.4z" style="fill-rule: evenodd; clip-rule: evenodd; fill: rgb(79, 83, 86);"/>
	</g>
</svg>