<?xml version="1.0" encoding="utf-8"?>
<svg id="master-artboard" viewBox="0 0 529.07958984375 496.59796142578125" version="1.1" xmlns="http://www.w3.org/2000/svg" x="0px" y="0px" style="enable-background:new 0 0 2000 2000;" width="529.07958984375px" height="496.59796142578125px"><rect id="ee-background" x="0" y="0" width="529.07958984375" height="496.59796142578125" style="fill: white; fill-opacity: 0; pointer-events: none;"/>

<radialGradient id="SVGID_1_" cx="1000.2517" cy="1000.5164" r="653.9938" gradientTransform="matrix(1.8417 0 0 2.1512 -841.9746 -1151.8979)" gradientUnits="userSpaceOnUse">
		<stop offset="0.3997" style="stop-color:#FFFFFF"/>
		<stop offset="0.4636" style="stop-color:#928F8F"/>
		<stop offset="0.5263" style="stop-color:#504D4D"/>
		<stop offset="0.5785" style="stop-color:#2A2928"/>
		<stop offset="0.6183" style="stop-color:#0F0F0F"/>
		<stop offset="0.6409" style="stop-color:#010101"/>
		<stop offset="0.8471" style="stop-color:#101010"/>
	</radialGradient>

<g transform="matrix(0.9999686479568481, 0.008139092475175858, -0.008139092475175858, 0.9999686479568481, -1399.8680038452148, -526.9342041015625)">
			
			<g><g transform="matrix(4.204777381542985, -0.03422414102664836, 0.03422414102664836, 4.204777381542985, -1071.5805415700097, 384.23113693210036)"><g id="g-1" transform="matrix(1, 0, 0, 1, 0, 0)">
	<g id="g-2">
		<path class="st0" d="M652,46c27.6,0,50,22.4,50,50s-22.4,50-50,50s-50-22.4-50-50S624.4,46,652,46z" style="fill: rgb(79, 83, 86);"/>
	</g>
</g></g><g transform="matrix(1, 1.734723475976807e-18, -1.734723475976807e-18, 1, -0.13631579279899597, -16.748186111450195)">
				
				<g id="XMLID_1434_">
					<g id="XMLID_1436_" transform="matrix(1, 1.734723475976807e-18, -1.734723475976807e-18, 1, 3.295109421406835, -6.726544580252735)">
						<path d="M 1562.25 726.440002 H 1606.330002 V 868.830002 H 1562.25 V 726.440002 Z" id="XMLID_1438_" class="st28" style="fill: rgb(255, 255, 255);"/>
						<path id="XMLID_1437_" class="st28" d="M1584.08,707.79c14.4,0,26.06-11.77,26.06-26.28c0-14.51-11.67-26.27-26.06-26.27&#10;&#9;&#9;&#9;&#9;&#9;&#9;&#9;c-14.4,0-26.06,11.76-26.06,26.27C1558.01,696.02,1569.68,707.79,1584.08,707.79z" style="fill: rgb(255, 255, 255);"/>
					</g>
					<path id="XMLID_1435_" class="st28" d="M1676.78,794.08c0-20.02,9.21-31.94,26.85-31.94c16.21,0,23.99,11.45,23.99,31.94&#10;&#9;&#9;&#9;&#9;&#9;&#9;c0,20.51,0,74.74,0,74.74h43.87c0,0,0-52.01,0-90.15c0-38.14-21.62-56.58-51.81-56.58c-30.2,0-42.91,23.53-42.91,23.53v-19.18&#10;&#9;&#9;&#9;&#9;&#9;&#9;h-42.28v142.39h42.28C1676.78,868.82,1676.78,816.02,1676.78,794.08z" style="fill: rgb(255, 255, 255);" transform="matrix(1, 1.734723475976807e-18, -1.734723475976807e-18, 1, 3.295109421406835, -6.726544580252735)"/>
				</g>
			</g></g>
		</g></svg>