<svg width="29" height="29" viewBox="0 0 29 29" fill="none" xmlns="http://www.w3.org/2000/svg">
<g clip-path="url(#clip0)">
<path d="M26.1 2.90002H2.9C1.29837 2.90002 0 4.1984 0 5.80002C0 7.40165 1.29837 8.70002 2.9 8.70002H26.1C27.7016 8.70002 29 7.40165 29 5.80002C29 4.1984 27.7016 2.90002 26.1 2.90002Z" fill="black"/>
<path d="M26.1 11.6H2.9C1.29837 11.6 0 12.8983 0 14.5C0 16.1016 1.29837 17.4 2.9 17.4H26.1C27.7016 17.4 29 16.1016 29 14.5C29 12.8983 27.7016 11.6 26.1 11.6Z" fill="black"/>
<path d="M26.1 20.3H2.9C1.29837 20.3 0 21.5984 0 23.2C0 24.8016 1.29837 26.1 2.9 26.1H26.1C27.7016 26.1 29 24.8016 29 23.2C29 21.5984 27.7016 20.3 26.1 20.3Z" fill="black"/>
</g>
<defs>
<clipPath id="clip0">
<rect width="29" height="29" fill="white"/>
</clipPath>
</defs>
</svg>
