<?xml version="1.0" encoding="utf-8"?>
<svg id="master-artboard" viewBox="0 0 841.9 595.3" version="1.1" xmlns="http://www.w3.org/2000/svg" x="0px" y="0px" style="enable-background:new 0 0 841.9 595.3;" width="841.9000244140625px" height="595.2999877929688px">



<g transform="matrix(1, 0, 0, 1, 0, 0)">
		<path d="M 109.0999984741211 234.8000030517578 L 86.19999694824219 271.6000061035156 L 132.10000610351562 351.70001220703125 L 180.3000030517578 351.3999938964844 L 155.8000030517578 311.8999938964844 L 63.29999923706055 311.79998779296875 L 39.599998474121094 352 L 84.69999694824219 352 L 132.89999389648438 270.79998779296875 L 109.0999984741211 234.8000030517578 Z" class="st5" style="fill-rule: evenodd; clip-rule: evenodd; fill: rgb(79, 83, 86);"/>
		<path class="st6" d="M186.6,272.1l-0.1,80.3h18.1l0.1-54.6l17.6,54.6H237l16-54.5l-0.1,54.5h19.4l0.1-80.2l-29.6-0.1L230,314.7&#10;&#9;&#9;&#9;l-13.6-42.6H186.6L186.6,272.1z M510.7,271.7h45c11,0,23.7,11.5,22.9,18.5l-0.6,4.9c-0.9,7.2-6.2,12.6-12.4,15.8l-0.6,0.3l0.6,0.2&#10;&#9;&#9;&#9;c1.5,0.3,2.8,0.9,4.1,1.5c14.4,6.5,13,30.7-0.3,36.3c-6.4,2.7-13.3,4.3-20.3,4.3h-38.5L510.7,271.7L510.7,271.7z M534.2,321.3&#10;&#9;&#9;&#9;v15.4h14.4c10,0,12.6-15.3,0-15.3L534.2,321.3L534.2,321.3z M534.3,287.4v15.3h13.1c10.2,0,10.4-15.2,0-15.2L534.3,287.4&#10;&#9;&#9;&#9;L534.3,287.4z M371.6,342c8.7,6.8,20.1,10.7,32.5,10.7c21.3,0.1,33.9-12,33.9-27.9c0.1-15.8-10.9-22.2-26.1-25.1&#10;&#9;&#9;&#9;c-1.4-0.3-11.6-0.7-11.6-6.9c0-3.8,3.1-7,8.8-7c4.2,0,10.4,1.7,16,6.1l8.4-15.6c-8.2-5-17.6-7.6-26.8-7.6&#10;&#9;&#9;&#9;c-19.1,0-31.8,11.9-31.8,26.3c-0.1,18.9,19.7,21.5,24.1,22.5c9.4,2.2,9.6,2.9,10.5,3.6c1.7,1.5,2.5,3.3,2.5,5.6&#10;&#9;&#9;&#9;c0,4.3-3.3,7.8-10.6,7.8c-5,0-13.2-2.5-20.1-8.6L371.6,342L371.6,342z M606.5,342.7c8.7,6.8,20.1,10.7,32.5,10.7&#10;&#9;&#9;&#9;c21.4,0,33.8-12,33.8-28c0.1-15.7-10.8-22.1-26.1-24.9c-1.3-0.3-11.6-0.7-11.6-6.9c0-3.8,3.2-7,8.8-7c4.2,0,10.4,1.7,16.1,6.1&#10;&#9;&#9;&#9;l8.5-15.6c-8.1-5-17.7-7.6-26.9-7.6c-19,0-31.7,11.9-31.7,26.3c-0.1,18.9,19.7,21.5,24,22.5c9.4,2.2,9.6,2.9,10.5,3.6&#10;&#9;&#9;&#9;c1.7,1.5,2.6,3.3,2.6,5.6c0,4.4-3.3,7.8-10.6,7.8c-4.9,0-13.1-2.5-20-8.6L606.5,342.7L606.5,342.7z M719.6,300.6h-22.1v-28.1&#10;&#9;&#9;&#9;l-22-0.1l-0.1,80.7h22v-33h22.1v33h22.1l0.1-80.6h-22.1V300.6L719.6,300.6z M372.8,272.3l-66.2-0.1v15.7h22.6l-0.1,64.5h22.2&#10;&#9;&#9;&#9;l0.1-64.5h21.4V272.3L372.8,272.3z M464.1,272.3h-22.7v51.5c0,17.8,15.6,30.8,33,30.1c17.1-0.7,32.3-13.4,32.3-31.1l0.1-50.4&#10;&#9;&#9;&#9;l-19-0.1l-0.1,49.1c0,7-3.9,14.5-11.4,15.4c-8.3,1.1-12.4-7.5-12.4-14.8L464.1,272.3L464.1,272.3z M604.1,353l0.1-80.4l-22.3-0.3&#10;&#9;&#9;&#9;l-0.1,80.7H604.1L604.1,353z M301.4,352.4l0.1-80.2h-22.2l-0.1,80.2H301.4L301.4,352.4z M770.9,352.5l0.1-80l-22-0.1v80H770.9&#10;&#9;&#9;&#9;L770.9,352.5z M790.1,294.6c-6.3,0-11.6-4.9-11.6-11.6c0-6.7,5.3-11.6,11.6-11.6c6.3,0,11.6,4.9,11.6,11.6&#10;&#9;&#9;&#9;C801.7,289.7,796.4,294.6,790.1,294.6L790.1,294.6z M780.8,283c0,5.7,4.1,9.7,9.4,9.7c5.2,0,9.3-4,9.3-9.7c0-5.5-4.1-9.6-9.3-9.6&#10;&#9;&#9;&#9;C784.8,273.4,780.8,277.5,780.8,283L780.8,283z M787.7,283.8v5.9h-2v-13.4h5c3.1,0,4.6,1.2,4.6,3.8c0,2.4-1.4,3.4-3.4,3.7l3.8,5.9&#10;&#9;&#9;&#9;h-2.3l-3.5-5.9H787.7L787.7,283.8z M787.7,282.2h2.4c1.7,0,3.1-0.1,3.1-2.2c0-1.7-1.4-2-2.8-2h-2.7V282.2L787.7,282.2z" style="fill-rule: evenodd; clip-rule: evenodd; fill: rgb(79, 83, 86);"/>
	</g>
</svg>