<?xml version="1.0" encoding="utf-8"?>
<svg id="master-artboard" viewBox="0 0 841.9 595.3" version="1.1" xmlns="http://www.w3.org/2000/svg" x="0px" y="0px" style="enable-background:new 0 0 841.9 595.3;" width="841.9000244140625px" height="595.2999877929688px">



<g transform="matrix(1, 0, 0, 1, 0, 0)">
		<path class="st5" d="M29.6,217.4V374h781.2V217.4H29.6L29.6,217.4z M223.1,367.3H37.2V225.2h185.8V367.3L223.1,367.3z&#10;&#9;&#9;&#9; M348.7,340.6H311l-29.4-70.9v70.9h-23.4v-89.9h40.4l27.2,70.2v-70.2h23.1V340.6L348.7,340.6z M392.1,340.6h-24.6v-89.9h24.6&#10;&#9;&#9;&#9;V340.6L392.1,340.6z M456.2,340.6h-46.4v-20h53.9v-15.3h-26.9c-19.4,0-30.5-7.2-30.5-25.2c0-20.7,12.8-29.3,33.4-29.3h42v19.5&#10;&#9;&#9;&#9;h-50.5v14.7h27.5c19.4,0,30.2,7.5,30.2,26.5C488.8,333.5,478,340.6,456.2,340.6L456.2,340.6z M546.5,340.6h-46.6v-20h54.2v-15.3&#10;&#9;&#9;&#9;h-26.9c-19.5,0-30.6-7.2-30.6-25.4c0-20.8,12.7-29.2,33.2-29.2h42.3v19.5h-50.5v14.7H549c19.4,0,30,7.5,30,26.5&#10;&#9;&#9;&#9;C579,333.5,568.3,340.6,546.5,340.6L546.5,340.6z M654.2,340.6l-6.6-17.2h-38.2l-6,17.2h-24.2l32-89.9h36.2l31.6,89.9H654.2&#10;&#9;&#9;&#9;L654.2,340.6z M775.8,340.6h-37.7l-29.5-70.9v70.9h-23.3v-89.9h40.3l27.2,70.2v-70.2h23V340.6L775.8,340.6z M616.3,303.6h24.6&#10;&#9;&#9;&#9;l-11.8-34.9L616.3,303.6L616.3,303.6z" style="fill-rule: evenodd; clip-rule: evenodd; fill: rgb(79, 83, 86);"/>
		<path class="st5" d="M199.6,275.1H60.3c-5.7,0-8,1-8,6.2v26.9c0,8,0.9,8.6,9.7,8.6h138.3c7.7,0,7.9,0,7.9-9.1v-25.9&#10;&#9;&#9;&#9;C208.2,275.7,207,275.1,199.6,275.1L199.6,275.1z M85.2,307.8h-9.8l-7.8-18.3v18.3h-6.2v-23.9h10.5l7.2,17.9v-17.9h6.1V307.8&#10;&#9;&#9;&#9;L85.2,307.8z M96.7,307.8h-6.6v-23.9h6.6V307.8L96.7,307.8z M113.7,307.8h-12.1v-5.4h14.2v-3.8h-6c-5.3,0-9.2-1.6-9.2-7.2&#10;&#9;&#9;&#9;c0-5.2,3.7-7.5,8.8-7.5h11.3v5.2h-13.5v3.8h6.8c5.7,0,8.4,1.4,8.4,7.2C122.3,306.7,119,307.8,113.7,307.8L113.7,307.8z&#10;&#9;&#9;&#9; M137.8,307.8h-12v-5.4h14v-3.8h-6c-5.3,0-9.2-1.6-9.2-7.2c0-5.2,3.7-7.5,8.8-7.5h11.3v5.2h-13.5v3.8h6.8c5.7,0,8.5,1.4,8.5,7.2&#10;&#9;&#9;&#9;C146.4,306.7,143.1,307.8,137.8,307.8L137.8,307.8z M166.8,307.8l-1.7-4.6h-10.2l-1.8,4.6h-6.6l8.7-23.9h9.4l8.6,23.9H166.8&#10;&#9;&#9;&#9;L166.8,307.8z M198.6,307.8h-10.1l-7.8-18.3v18.3h-6.2v-23.9h10.8l7,17.9v-17.9h6.3V307.8L198.6,307.8z M156.5,297.6h6.4l-3.1-8.7&#10;&#9;&#9;&#9;L156.5,297.6L156.5,297.6z" style="fill-rule: evenodd; clip-rule: evenodd; fill: rgb(79, 83, 86);"/>
		<path class="st6" d="M177.4,271.7H81.8c3.6-18.1,26.9-30.4,47.5-30.4C147.8,241.3,172.2,252.9,177.4,271.7L177.4,271.7z&#10;&#9;&#9;&#9; M81.8,320.5h96c-5.7,18-27.1,30.4-48.4,30.4C112.5,351,85.4,339.1,81.8,320.5L81.8,320.5z" style="fill-rule: evenodd; clip-rule: evenodd; fill: rgb(79, 83, 86);"/>
	</g>
</svg>