<?xml version="1.0" encoding="utf-8"?>
<svg id="master-artboard" viewBox="0 0 841.9 595.3" version="1.1" xmlns="http://www.w3.org/2000/svg" x="0px" y="0px" style="enable-background:new 0 0 841.9 595.3;" width="841.9000244140625px" height="595.2999877929688px"><rect id="ee-background" x="0" y="0" width="841.9000244140625" height="595.2999877929688" style="fill: white; fill-opacity: 0; pointer-events: none;"/>



<g transform="matrix(1, 0, 0, 1, 0, 0)">
		<path class="st5" d="M126,351c-10.2-6.4-17.7-28.4-17.7-54.7c0-1,0-1.9,0-2.9l0,0c-28.4-4.5-48.9-16.7-49.4-31.1l-0.1,0.2&#10;&#9;&#9;&#9;c-6.9,8.6-10.9,18.6-10.9,29.2c0,31.3,34.3,56.9,77.9,59.2L126,351L126,351z M34.8,294.1c0-35,43.6-63.4,97.3-63.4&#10;&#9;&#9;&#9;c53.7,0,97.3,28.4,97.3,63.4c0,35-43.6,63.4-97.3,63.4C78.4,357.5,34.8,329.1,34.8,294.1L34.8,294.1z M132.1,239.8&#10;&#9;&#9;&#9;c10.4,0,19.2,15.7,22.5,37.7l0,0c20.2-3.1,34.3-10.4,34.3-18.8c0-11.3-25.4-20.5-56.8-20.5c-31.4,0-56.8,9.2-56.8,20.5&#10;&#9;&#9;&#9;c0,8.4,14.1,15.7,34.3,18.8l0,0C112.9,255.6,121.7,239.8,132.1,239.8L132.1,239.8z M138.4,351c43.6-2.3,77.9-27.9,77.9-59.2&#10;&#9;&#9;&#9;c0-10.6-4-20.6-10.9-29.2l-0.1-0.2c-0.5,14.5-21,26.7-49.4,31.1l0,0c0,0.9,0,1.9,0,2.9c0,26.2-7.5,48.3-17.7,54.7L138.4,351&#10;&#9;&#9;&#9;L138.4,351z M132.1,279.2c4.6,0,9.2-0.2,13.5-0.6l0,0c-2.2-14.1-7.4-24-13.5-24c-6.1,0-11.3,9.9-13.5,24l0,0&#10;&#9;&#9;&#9;C122.9,279,127.5,279.2,132.1,279.2L132.1,279.2z M132.1,331.3c7.8,0,14.2-16.3,14.5-36.6l0,0c-4.7,0.4-9.6,0.7-14.6,0.7&#10;&#9;&#9;&#9;s-9.9-0.2-14.6-0.7l0,0C117.9,315.1,124.3,331.3,132.1,331.3L132.1,331.3z" style="fill-rule: evenodd; clip-rule: evenodd; fill: rgb(79, 83, 86);"/>
		<path class="st5" d="M531.4,294.1c0-26.8,21.7-48.5,48.5-48.5c26.8,0,48.5,21.7,48.5,48.5c0,26.8-21.7,48.5-48.5,48.5&#10;&#9;&#9;&#9;C553.1,342.5,531.4,320.9,531.4,294.1L531.4,294.1z M579.8,324.8c14.9,0,27.1-13.7,27.1-30.7c0-16.9-12.1-30.7-27.1-30.7&#10;&#9;&#9;&#9;c-14.9,0-27.1,13.7-27.1,30.7C552.8,311,564.9,324.8,579.8,324.8L579.8,324.8z" style="fill-rule: evenodd; clip-rule: evenodd; fill: rgb(79, 83, 86);"/>
		<path d="M 683.2999877929688 265.79998779296875 L 683.2999877929688 340.29998779296875 L 662.7999877929688 340.29998779296875 L 662.7999877929688 265.79998779296875 L 662.9000244140625 265.79998779296875 L 634.4000244140625 265.79998779296875 L 634.4000244140625 249 L 711.7000122070312 249 L 711.7000122070312 265.79998779296875 L 683.2999877929688 265.79998779296875 L 683.2999877929688 265.79998779296875 Z" class="st5" style="fill-rule: evenodd; clip-rule: evenodd; fill: rgb(79, 83, 86);"/>
		<path class="st5" d="M736.4,319.8L736.4,319.8l-7.9,20.6h-23.8l37.7-91.4h12.7h12.7l37.7,91.4h-23.8l-7.8-20.5l0,0h-18.7H736.4&#10;&#9;&#9;&#9;L736.4,319.8z M755.1,304.4H768l0,0l-12.8-33.4h-0.2l-12.8,33.4l0,0H755.1L755.1,304.4z" style="fill-rule: evenodd; clip-rule: evenodd; fill: rgb(79, 83, 86);"/>
		<path d="M 306.8999938964844 265.79998779296875 L 306.8999938964844 340.29998779296875 L 286.5 340.29998779296875 L 286.5 265.79998779296875 L 286.6000061035156 265.79998779296875 L 258 265.79998779296875 L 258 249 L 335.3999938964844 249 L 335.3999938964844 265.79998779296875 L 307 265.79998779296875 L 306.8999938964844 265.79998779296875 Z" class="st5" style="fill-rule: evenodd; clip-rule: evenodd; fill: rgb(79, 83, 86);"/>
		<path class="st5" d="M340.6,294.1c0-26.8,21.7-48.5,48.5-48.5c26.8,0,48.5,21.7,48.5,48.5c0,26.8-21.7,48.5-48.5,48.5&#10;&#9;&#9;&#9;C362.3,342.5,340.6,320.9,340.6,294.1L340.6,294.1z M389.1,324.8c14.9,0,27.1-13.7,27.1-30.7c0-16.9-12.1-30.7-27.1-30.7&#10;&#9;&#9;&#9;c-14.9,0-27.1,13.7-27.1,30.7C362,311,374.2,324.8,389.1,324.8L389.1,324.8z" style="fill-rule: evenodd; clip-rule: evenodd; fill: rgb(79, 83, 86);"/>
		<path d="M 484.5 340.29998779296875 L 494.79998779296875 340.29998779296875 L 494.79998779296875 306.1000061035156 L 494.79998779296875 305.70001220703125 L 530.4000244140625 249 L 506.6000061035156 249 L 484.5 287.3999938964844 L 462.29998779296875 249 L 438.5 249 L 474.1000061035156 305.70001220703125 L 474.1000061035156 306.1000061035156 L 474.1000061035156 340.29998779296875 L 484.5 340.29998779296875 Z" class="st5" style="fill-rule: evenodd; clip-rule: evenodd; fill: rgb(79, 83, 86);"/>
	</g>
</svg>